# xmcd CD database file
#
# Track frame offsets:
#	187
#	15250
#	28452
#	43667
#	57040
#	73457
#	89702
#	103477
#	121235
#	137745
#
# Disc length: 2037 seconds
#
# Revision: 4
# Processed by: cddbd v1.5.2PL0 Copyright (c) Steve Scherf et al.
# Submitted via: CDex 1.51
#
DISCID=9407f30a
DTITLE=Lee Greenwood - Streamline
DYEAR=1985
DGENRE=Country
TTITLE0=Streamline
TTITLE1=Lonely People
TTITLE2=I Don't Mind The Thorns
TTITLE3=Heart's Aren't Made To Break
TTITLE4=A Little At A Time
TTITLE5=Breakin ' Even
TTITLE6=Don't Underestimate My Love For You
TTITLE7=Same Old Song
TTITLE8=The Will To Love
TTITLE9=Leave My Heart The Way You Found It
EXTD=YEAR: 1985
EXTT0=
EXTT1=
EXTT2=
EXTT3=
EXTT4=
EXTT5=
EXTT6=
EXTT7=
EXTT8=
EXTT9=
PLAYORDER=
